<svg xmlns="http://www.w3.org/2000/svg" xmlns:xlink="http://www.w3.org/1999/xlink" width="500" zoomAndPan="magnify" viewBox="0 0 375 374.999991" height="500" preserveAspectRatio="xMidYMid meet" version="1.0"><path fill="#171100" d="M 16.527344 150 L 16.527344 208.605469 L 52.421875 208.605469 L 52.421875 222.046875 L 1.632812 222.046875 L 1.632812 150 Z M 91.207031 166.34375 C 96.496094 166.34375 101.03125 167.492188 104.816406 169.785156 C 108.675781 172.078125 111.601562 175.269531 113.601562 179.355469 C 115.675781 183.371094 116.710938 188.03125 116.710938 193.335938 L 116.710938 199.144531 L 77.492188 199.144531 C 78.207031 202.800781 79.992188 205.738281 82.851562 207.960938 C 85.707031 210.183594 89.207031 211.292969 93.351562 211.292969 C 97.28125 211.292969 100.851562 210.507812 104.066406 208.929688 C 107.28125 207.351562 109.851562 205.738281 111.78125 204.089844 L 111.675781 216.777344 C 109.960938 218.285156 107.386719 219.824219 103.960938 221.402344 C 100.601562 222.910156 96.886719 223.660156 92.816406 223.660156 C 87.457031 223.660156 82.566406 222.441406 78.136719 220.003906 C 73.777344 217.566406 70.277344 214.234375 67.636719 210.003906 C 65.066406 205.773438 63.777344 200.933594 63.777344 195.488281 C 63.777344 190.179688 64.957031 185.34375 67.3125 180.96875 C 69.671875 176.597656 72.921875 173.082031 77.066406 170.429688 C 81.207031 167.707031 85.921875 166.34375 91.207031 166.34375 Z M 90.886719 178.28125 C 87.53125 178.28125 84.707031 179.320312 82.421875 181.398438 C 80.136719 183.476562 78.566406 186.273438 77.707031 189.785156 L 103.636719 189.785156 C 103.351562 185.914062 101.921875 183.046875 99.351562 181.183594 C 96.78125 179.25 93.960938 178.28125 90.886719 178.28125 Z M 146.605469 166.34375 C 149.960938 166.34375 153.070312 166.847656 155.925781 167.847656 C 158.785156 168.851562 161 170 162.570312 171.289062 L 162.570312 183.335938 C 160.855469 182.1875 158.75 181.078125 156.25 180 C 153.820312 178.925781 151.285156 178.386719 148.640625 178.386719 C 146.070312 178.386719 144.035156 178.960938 142.535156 180.109375 C 141.03125 181.253906 140.28125 182.617188 140.28125 184.195312 C 140.28125 185.34375 140.710938 186.417969 141.570312 187.421875 C 142.425781 188.351562 144.070312 189.175781 146.496094 189.894531 L 152.605469 191.9375 C 160.820312 194.375 164.925781 199.144531 164.925781 206.242188 C 164.925781 209.609375 163.964844 212.621094 162.035156 215.273438 C 160.175781 217.855469 157.640625 219.898438 154.425781 221.402344 C 151.285156 222.910156 147.785156 223.660156 143.925781 223.660156 C 140.28125 223.660156 136.746094 223.085938 133.316406 221.941406 C 129.890625 220.792969 127.28125 219.539062 125.496094 218.175781 L 125.496094 206.242188 C 126.855469 207.171875 128.496094 208.066406 130.425781 208.929688 C 132.355469 209.789062 134.355469 210.507812 136.425781 211.078125 C 138.496094 211.582031 140.390625 211.832031 142.105469 211.832031 C 144.820312 211.832031 146.890625 211.367188 148.320312 210.433594 C 149.820312 209.429688 150.570312 208.03125 150.570312 206.242188 C 150.570312 204.878906 149.960938 203.800781 148.746094 203.015625 C 147.535156 202.226562 145.746094 201.4375 143.390625 200.648438 L 136.746094 198.28125 C 132.605469 196.921875 129.746094 194.984375 128.175781 192.476562 C 126.605469 189.964844 125.816406 186.992188 125.816406 183.550781 C 125.816406 180.109375 126.675781 177.132812 128.390625 174.625 C 130.175781 172.042969 132.640625 170.035156 135.78125 168.601562 C 138.925781 167.097656 142.535156 166.34375 146.605469 166.34375 Z M 193.964844 166.34375 C 197.320312 166.34375 200.429688 166.847656 203.285156 167.847656 C 206.144531 168.851562 208.359375 170 209.929688 171.289062 L 209.929688 183.335938 C 208.214844 182.1875 206.109375 181.078125 203.609375 180 C 201.179688 178.925781 198.644531 178.386719 196 178.386719 C 193.429688 178.386719 191.394531 178.960938 189.894531 180.109375 C 188.394531 181.253906 187.644531 182.617188 187.644531 184.195312 C 187.644531 185.34375 188.070312 186.417969 188.929688 187.421875 C 189.785156 188.351562 191.429688 189.175781 193.855469 189.894531 L 199.964844 191.9375 C 208.179688 194.375 212.289062 199.144531 212.289062 206.242188 C 212.289062 209.609375 211.324219 212.621094 209.394531 215.273438 C 207.535156 217.855469 205 219.898438 201.785156 221.402344 C 198.644531 222.910156 195.144531 223.660156 191.285156 223.660156 C 187.644531 223.660156 184.105469 223.085938 180.679688 221.941406 C 177.25 220.792969 174.640625 219.539062 172.855469 218.175781 L 172.855469 206.242188 C 174.214844 207.171875 175.855469 208.066406 177.785156 208.929688 C 179.714844 209.789062 181.714844 210.507812 183.785156 211.078125 C 185.855469 211.582031 187.75 211.832031 189.464844 211.832031 C 192.179688 211.832031 194.25 211.367188 195.679688 210.433594 C 197.179688 209.429688 197.929688 208.03125 197.929688 206.242188 C 197.929688 204.878906 197.320312 203.800781 196.109375 203.015625 C 194.894531 202.226562 193.109375 201.4375 190.75 200.648438 L 184.105469 198.28125 C 179.964844 196.921875 177.105469 194.984375 175.535156 192.476562 C 173.964844 189.964844 173.179688 186.992188 173.179688 183.550781 C 173.179688 180.109375 174.035156 177.132812 175.75 174.625 C 177.535156 172.042969 180 170.035156 183.144531 168.601562 C 186.285156 167.097656 189.894531 166.34375 193.964844 166.34375 Z M 249.039062 166.34375 C 254.324219 166.34375 259.148438 167.632812 263.503906 170.214844 C 267.863281 172.722656 271.363281 176.164062 274.003906 180.539062 C 276.71875 184.839844 278.078125 189.679688 278.078125 195.054688 C 278.078125 200.433594 276.71875 205.273438 274.003906 209.574219 C 271.363281 213.875 267.863281 217.316406 263.503906 219.898438 C 259.148438 222.40625 254.324219 223.660156 249.039062 223.660156 C 243.824219 223.660156 239.003906 222.40625 234.574219 219.898438 C 230.21875 217.316406 226.714844 213.875 224.074219 209.574219 C 221.429688 205.273438 220.109375 200.433594 220.109375 195.054688 C 220.109375 189.679688 221.429688 184.839844 224.074219 180.539062 C 226.714844 176.164062 230.21875 172.722656 234.574219 170.214844 C 239.003906 167.632812 243.824219 166.34375 249.039062 166.34375 Z M 249.039062 179.570312 C 246.46875 179.570312 244.074219 180.179688 241.859375 181.398438 C 239.644531 182.617188 237.859375 184.375 236.503906 186.667969 C 235.21875 188.960938 234.574219 191.757812 234.574219 195.054688 C 234.574219 198.355469 235.21875 201.148438 236.503906 203.445312 C 237.859375 205.738281 239.644531 207.496094 241.859375 208.714844 C 244.074219 209.859375 246.46875 210.433594 249.039062 210.433594 C 251.609375 210.433594 254.003906 209.859375 256.21875 208.714844 C 258.433594 207.496094 260.21875 205.738281 261.574219 203.445312 C 262.933594 201.148438 263.613281 198.355469 263.613281 195.054688 C 263.613281 191.757812 262.933594 188.960938 261.574219 186.667969 C 260.21875 184.375 258.433594 182.617188 256.21875 181.398438 C 254.003906 180.179688 251.609375 179.570312 249.039062 179.570312 Z M 304.542969 167.742188 L 304.542969 175.484375 C 306.183594 173.261719 308.398438 171.183594 311.1875 169.246094 C 314.042969 167.3125 317.292969 166.34375 320.9375 166.34375 C 326.4375 166.34375 331.042969 168.207031 334.757812 171.9375 C 338.472656 175.664062 340.332031 181.253906 340.332031 188.710938 L 340.332031 222.046875 L 326.722656 222.046875 L 326.613281 190.539062 C 326.613281 186.882812 325.722656 184.160156 323.9375 182.367188 C 322.222656 180.574219 319.828125 179.679688 316.757812 179.679688 C 314.328125 179.679688 312.042969 180.46875 309.898438 182.042969 C 307.828125 183.621094 306.042969 185.484375 304.542969 187.636719 L 304.542969 222.046875 L 290.933594 222.046875 L 290.933594 167.742188 Z M 304.542969 167.742188 " fill-opacity="1" fill-rule="nonzero"/><path fill="#ffb900" d="M 362.402344 206.777344 C 364.761719 206.777344 366.761719 207.636719 368.402344 209.359375 C 370.117188 211.007812 370.976562 213.015625 370.976562 215.382812 C 370.976562 217.746094 370.117188 219.789062 368.402344 221.511719 C 366.761719 223.160156 364.761719 223.984375 362.402344 223.984375 C 360.046875 223.984375 358.011719 223.160156 356.296875 221.511719 C 354.652344 219.789062 353.832031 217.746094 353.832031 215.382812 C 353.832031 213.015625 354.652344 211.007812 356.296875 209.359375 C 358.011719 207.636719 360.046875 206.777344 362.402344 206.777344 Z M 362.402344 206.777344 " fill-opacity="1" fill-rule="nonzero"/></svg>